<svg width="24" height="24" viewBox="0 0 24 24" fill="none" xmlns="http://www.w3.org/2000/svg">
<path d="M9 11C10.6569 11 12 9.65685 12 8C12 6.34315 10.6569 5 9 5C7.34315 5 6 6.34315 6 8C6 9.65685 7.34315 11 9 11Z" stroke="#FFFFFF" stroke-width="2"/>
<path d="M3.5 20C3.5 18.5413 4.07946 17.1424 5.11091 16.1109C6.14236 15.0795 7.54131 14.5 9 14.5C10.4587 14.5 11.8576 15.0795 12.8891 16.1109C13.9205 17.1424 14.5 18.5413 14.5 20" stroke="#FFFFFF" stroke-width="2" stroke-linecap="round"/>
<path d="M16 5.5C16.6398 5.66947 17.2056 6.04577 17.6093 6.57029C18.013 7.09482 18.2319 7.73812 18.2319 8.4C18.2319 9.06188 18.013 9.70518 17.6093 10.2297C17.2056 10.7542 16.6398 11.1305 16 11.3M16.5 14.5C17.6869 14.8355 18.7265 15.5602 19.452 16.5577C20.1774 17.5551 20.5465 18.7675 20.5 20" stroke="#FFFFFF" stroke-width="2" stroke-linecap="round"/>
</svg>
